<?xml version="1.0" standalone="yes"?>
<svg width="640" height="427">
<path style="fill:#503264; stroke:none;" d="M0 0L0 126L10 126C10 120.372 8.79942 114.12 16 114L13 112L13 104L17 104L16 90C22.3258 89.7929 23.8529 87.081 24 81L25 81L26 84L28 84L30 64L24 64L24 62L32 60L32 64L48 64L48 48L58 48L58 32L74 32C74.057 26.9016 74.6333 23.4033 80 22L80 10L96 10L96 0L0 0z"/>
<path style="fill:#603f78; stroke:none;" d="M96 0L96 10L80 10L80 22C74.1013 22.8671 74.018 26.7614 74 32L58 32L58 48L48 48L48 64L32 64L32 60L24 62L24 64L30 64L28 84L26 84L25 81L24 81C23.6914 86.6331 21.827 89.5567 16 90L17 104L13 104L16 114C8.40219 113.005 10 120.466 10 126L0 126L0 333L75 319L75 316L98 309L105.572 281.015L113.343 271.896L110 264L112 272L99 277L96 256L89 256L89 248L88 248L88 264L87 264L84 240L81 240C81 224.407 84.2089 205.116 75 192L81 192L81 168L88 168L88 160L84 160L84 152L80 152L80 151L88 151L89 136L92 136L93 120L88 120L88 119L96 119L96 112L105 112L105 104L111 104L111 103L105 101L105 99C111.022 97.1514 110.996 93.7284 111 88L112 88C115.65 91.5237 119.498 83.0634 120 80L125 80L125 72C129.845 70.64 132.893 67.5141 135 63L144 65L144 64L138 64L144 58L145 61L149 56L147 56L147 54L148 53L150 53L156 56L156 48L160 48L160 32L192 32L192 16L200 16L200 8L208 5C208.896 9.1825 224.55 2.98486 227 0L96 0z"/>
<path style="fill:#65427a; stroke:none;" d="M208 5L200 8L200 16L192 16L192 32L160 32L160 48L156 48L156 56L150 53L148 53L147 54L149 56C147.374 58.0656 146.145 60.0903 144 58L138 64L144 64L144 65L135 63L125 72L125 80L120 80C118.996 83.428 116.084 89.2386 112 88L111 88C110.98 93.6471 110.404 96.5432 105 99L105 101L111 103L111 104L105 104L105 112L96 112L96 119L88 119L88 120L93 120L92 136L89 136L88 151L80 151L80 152L84 152L84 160L88 160L88 168L96 168L96 160L101 160L101 152L104 152L104 144L108 144L109 128L112 128L112 148L116 144C110.308 140.31 113 126.232 113 120L116 120L116 112L123 112C123.005 105.07 124.458 99.486 131 96L131 88L136 88L136 80L144 80L144 72L160 72L160 64L168 64L168 57L169 57L171 63L173 63L175 57L176 57L176 61L180 60L180 58L177 57L177 56L184 56L184 47L197 48L197 40L216 32L216 28L224 28L224 25L232 25L232 24L228 24C231.685 19.9883 236.436 20.4611 241 23L247 16L240 16L240 15L264 12L264 8L272 8L272 11L288 12L288 8L312 8L312 15L320 8C320.854 11.9871 324.49 11 328 11L328 8L336 8L336 12L344 12L344 8L352 8L352 11L360 11L360 5C365.88 9.27853 372.064 9.2876 379 8L384 13L384 8L407 8L407 16L416 16L416 21L432 23L436 32L432 32L432 34L448 40L448 44L456 44L456 48L459 48L459 56L463 56L463 64L464 64L464 61L472 61L472 72L480 72L480 80L488 80L488 88L490 88L490 80L496 80L496 88L505 88L504 104L513 104C512.92 113.623 509.959 120.555 519 127C515.651 131.782 518.305 135.802 519.036 141.015C520.255 149.715 519.927 159.175 520 168L529 168L529 184L519 184L519 192L528 192L528 208L512 208L512 224L496 224L496 272L464 272L464 304L480 304L480 320L448 320L448 336L416 336L416 352L400 352L400 368L384 368L384 384L368 384L368 378L362 378L366 384L353 384C356.375 376.989 356.914 370.497 366 370L364 367C374.395 363.074 387.258 347.973 392 338C384.603 341.972 380.563 348.939 374.541 354.576C365.2 363.32 353.61 371.915 342 377.319C338.52 378.94 334.683 378.377 331.285 379.923C317.782 386.065 306.188 394.212 291 396.675C253.099 402.821 210.147 392.061 176.015 376.502C158.978 368.735 144.443 355.935 127.576 347.728C115.5 341.853 96.6903 346.939 85.0147 351.58C79.9959 353.575 73.6202 356.61 72 362L76 362L72 368C82.0977 368.001 91.8665 372.693 92 384L96 384L96 387L104 387L104 400L118 405.397L131 407L123 410L123 416L129 418C133.393 417.675 133.261 420.408 132 424L136 424L136 427L434 427L434 426L434 423C430.989 417.163 435.354 416.974 440 417L440 424L441 424L441 416L442 416L448 422L448 416L460 416L460 408L463 408L463 400L464 400L464 411C467.792 407.842 467.983 404.75 468 400L476 400L476 392L480 392L480 384L488 384L488 388C492.729 385.393 491.999 380.884 492 376L496 376L496 372L504 372L504 360L511 360L511 352L519 352L519 344L529 345C528.033 339.087 532.175 329.522 536 325L536 329C540.462 325.783 540.982 317.241 541 312L547 312L548 296L553 296L552 283L563 281C558.984 273.782 560 264.014 560 256L567 256L567 248L568 248L568 256L569 256L571 224L568 224L568 216L572 216L572 200L575 200L573 168L570 168L570 160L573 160L573 152L568 152L568 144L571 144L571 128L568 128L564 104L560 104L563 100L560 96L554 96L553.54 81.2894L548 64C534.707 60.2689 533.53 43.0105 520 43C519.416 34.6685 512.106 31.6943 507.148 25.9846C503.132 21.3591 505.72 15.1312 501.852 10.8634C498.572 7.24481 494.277 8.88248 490 8.98535C481.337 9.19376 472.673 8.92822 464 9L464 8L468 8C465.393 3.27136 460.884 4.00052 456 4L456 0L266 0C251.05 0 236.411 -0.70752 221.83 2.23535C217.673 3.07437 210.668 8.85965 208 5z"/>
<path style="fill:#5d3c73; stroke:none;" d="M456 0L456 4C461.045 4.00391 464.605 3.92352 468 8L464 8L464 9C472.557 8.97644 494.756 4.711 501.137 10.8773C505.74 15.3243 502.809 22.095 507.148 26.9568C511.945 32.3314 518.91 35.1882 520 43C533.356 43.0472 534.081 61.8523 548 64L554 96L560 96L563 100L560 104L564 104L568 128L571 128L571 144L568 144L568 152L573 152L573 160L570 160L570 168L573 168L575 200L572 200L572 216L568 216L568 224L571 224L569 256L568 256L568 248L567 248L567 256L560 256C560 263.604 558.46 274.526 563 281L552 283L553 296L548 296L547 312L541 312C540.938 317.56 539.875 324.897 536 329L536 325C531.646 328.627 527.548 339.484 529 345L519 344L519 352L511 352L511 360L504 360L504 372L496 372L496 376L492 376C491.996 381.045 492.076 384.605 488 388L488 384L480 384L480 392L476 392L476 400L468 400L464 411L464 400L463 400L463 408L460 408L460 416L448 416L448 422L442 416L441 416L441 424L440 424L440 417C436.271 417.133 427.47 416.47 434 423L432 426C453.959 431.228 481.421 427 504 427L504 416L520 416L520 408L530 408L530 400L533 400L536 391L536 400L537 400L537 392L540 392L540 384L544 384L544 368L566 368L566 362L572 362L572 352L576 352L576.318 306L583 295L577 293L577 291L587 288L587 280L584 280L584 272L602 272C602 262.398 596.397 247.247 604 240L606 256L608 256C608 253.37 607.287 249.38 609.333 247.333C612.033 244.634 616.818 246.549 620 243.889C625.381 239.389 627.187 219.072 621 215L625 214L624 164L608 164L608 160C615.142 160 622.662 160.759 624 152L618 152L618 144L624 144C624 128.179 632.781 102.085 608 102L608 84L600 82L600 80L605 80C603.735 77.0633 599.519 74.0866 603 72C599.964 67.5118 597.224 67.0185 592 67L592 48L576 48L576 38L560 38L560 28L576 28L576 27L568 25L568 24L571 24C566.152 18.5064 556.959 18.0008 550 18L550 16L560 16L560 14L544 14L542.397 1.02777L519 0L456 0z"/>
<path style="fill:#563668; stroke:none;" d="M543 0L544 14L560 14L560 16L550 16L550 18C555.438 18 560.941 18.5767 566 20.3333C568.161 21.0839 571.892 23.4811 568 24L568 25L576 27L576 28L560 28L560 38L576 38L576 48L592 48L592 67C597.142 67.0609 599.465 68.259 603 72L600 75L605 80L600 80L600 82L608 84L608 102C632.323 102.269 624 128.588 624 144L618 144L618 152L624 152C621.783 160.153 615.198 160 608 160L608 164L624 164L625 214L621 215L624 216C624 222.767 626.174 234.125 622.397 239.995C616.506 249.151 608.01 243.119 608 256L606 256L604 240C595.749 245.207 602 263.61 602 272L584 272L584 280L587 280L587 288L577 291L577 293L583 295C571.859 310.895 576 332.854 576 352L572 352L572 362L566 362L566 368L544 368L544 384L540 384L540 392L537 392L537 400L536 400L536 391L533 400L530 400L530 408L520 408L520 416L504 416L504 427L640 427L640 0L543 0z"/>
<path style="fill:#6a4982; stroke:none;" d="M360 5L360 11L352 11L352 8L344 8L344 12L336 12L336 8L328 8L328 11L320 8L312 15L312 8L288 8L288 12L272 11L272 8L264 8L264 12L240 15L240 16L247 16L241 23C236.932 20.1472 230.695 19.2313 228 24L232 24L232 25L224 25L224 28L216 28L216 32L197 40L197 48L184 47L184 56L177 56L177 57L180 58L180 60L176 61L176 57L175 57L173 63L171 63L169 57L168 57L168 64L160 64L160 72L144 72L144 80L136 80L136 88L131 88L131 96C123.605 98.4203 123.001 105.264 123 112L116 112L116 120L113 120C113 125.154 110.363 142.792 116 144L112 148L112 128L109 128L108 144L104 144L104 152L101 152L101 160L96 160L96 168L81 168L81 192L75 192C82.2768 207.322 81 222.902 81 240L84 240L87 264L88 264L88 248L89 248L89 256L96 256L99 277L112 272C110.436 266.989 106.762 260.202 107.128 254.999C107.752 246.133 112.817 239.937 111.941 230.005C111.454 224.472 103.844 222.34 104.462 216.975C104.909 213.097 109.104 211.548 111.142 208.675C113.329 205.592 113.658 200.671 113.91 197C114.717 185.29 116.364 176.374 118.779 165C119.728 160.53 119.406 154.998 122.514 151.329C129.064 143.594 139.311 139.467 146.866 132.945C149.274 130.866 150.925 125.847 154.265 125.175C157.506 124.523 161.221 128.895 165.001 128.966C176.118 129.175 185.989 126.503 186 141L200 138L200 137C197.862 136.761 196.161 136.508 194.282 135.362C177.672 125.232 201.543 120.724 202 136L203 136L214 126L214 163L217 163L216 176L211 177L211 194C228.731 189.068 217.265 160.372 217 148L224 148L217 123C225.069 124.245 225.001 130.428 229.843 135.258C233.935 139.342 244.369 141.937 250 142L244 127L232 126C233.141 118.633 240.198 116.386 246.981 118.514C252.701 120.309 250.273 125.945 254.318 128.681C259.323 132.067 274.276 130.17 278.683 126.235C280.859 124.293 280.763 120.56 283.302 119.083C287.008 116.927 289.26 121.169 290 124C295.769 123.98 307.532 121.66 312.576 118.992C317.802 116.227 321.743 111.523 328 111.055C344.766 109.8 357.769 122.322 374 126C374.766 130.552 378.354 132.537 381.124 136.004C386.056 142.177 394.781 154.141 395.856 162.015C396.531 166.964 388.968 177.864 393.323 180.686C397.434 183.351 403.437 181.406 408 182.228C416.11 183.689 431.398 190.036 437.779 195.534C445.861 202.498 446.287 211.209 434 212L434 208C431.672 207.704 427.636 205.638 425.525 207.082C422.363 209.244 422.863 215.735 423.17 219C424.178 229.727 429.382 237.161 426 248C432.67 252.324 424.694 274.163 422.996 281C418.346 299.724 406.343 314.505 395.753 330C386.654 343.315 378.768 358.625 364 367L366 370C356.884 370.22 355.566 376.314 353 384L366 384L362 378L368 378L368 384L384 384L384 368L400 368L400 352L416 352L416 336L448 336L448 320L480 320L480 304L464 304L464 272L496 272L496 224L512 224L512 208L528 208L528 192L519 192L519 184L529 184L529 168L520 168L519.576 144L519 127C511.171 119.078 512.972 114.256 513 104L504 104L505 88L496 88L496 80L490 80L490 88L488 88L488 80L480 80L480 72L472 72L472 61C468.489 61 464.854 60.0128 464 64L463 64L463 56L459 56L459 48L456 48L456 44L448 44L448 40L432 34L432 32L436 32L432 23L416 21L416 16L407 16L407 8L384 8L384 13L379 8C371.698 8.922 366.57 8.63248 360 5z"/>
<path style="fill:#b477b3; stroke:none;" d="M290 124C289.521 120.744 287.418 116.76 283.302 118.622C280.719 119.791 280.63 123.605 278.683 125.526C274.799 129.359 269.136 129.957 264 130L268 138L249 130L250 142L245 142L246 149L257 149L254 145L256 139C261.76 139.444 273.15 158.127 275 147C266.872 145.305 270.177 137.436 269 131L275 134L286 134L286 130C302.592 129.998 313.85 114.828 330 113.108C341.328 111.902 342.602 117.601 351.133 121.411C357.347 124.187 367.316 126.471 374 128C369.725 121.913 361.464 122.423 355.09 120.022C351.343 118.61 349.3 115.222 345.91 113.299C340.553 110.262 331.964 110.355 326.004 111.133C320.345 111.872 316.523 116.49 311.715 118.992C307.001 121.444 295.352 123.937 290 124z"/>
<path style="fill:#d0a0d2; stroke:none;" d="M286 130L286 134L275 134C274.271 130.597 272.194 131.013 269 131C269.763 137.463 266.579 146.031 275 147C272.141 156.394 262.519 139.216 256 139L254 145L257 149L246 149C244.888 140.982 238.946 137.254 231 137C233.164 141.793 237.101 141.279 240.566 144.56C243.518 147.355 242.462 151.744 244.603 154.981C249.235 161.981 258.348 160.448 259 152C265.43 155.132 265.184 161.552 266 168C274.068 166.428 274.993 167.244 275 176L254.424 168.488L236 153C239.264 159.373 244.722 165.093 246.525 172.17C248.603 180.318 242.879 199.383 235 203L232.644 184.996L235.772 171L231 156L224 158L220 157L220.432 186L206.883 208.424L205.106 232L202.094 243L205 262C213.346 259.466 210.21 240.518 212 233L214 233L216 244C224.397 248.898 227.327 259.29 234.309 264.741C245.908 273.794 269.192 271.285 283 271L282 268L334 255L334 256C322.45 259.907 311.425 264.931 300.039 269.035C296.992 270.134 289.552 273.195 292.086 277.687C294.663 282.254 303.886 279.713 307.424 277.985C319.992 271.849 332.396 266.273 345 260L344 265L348 272L338 269C334.369 279.053 331.465 279.69 322 277L326 301L332 310L353.129 298.549L375.91 292.442L412 265L412 272L413 272C413.849 268.434 413.522 264.376 414.934 261C417.564 254.716 422.925 250.074 423.815 243C425.004 233.543 419.494 224.791 420.043 215C420.506 206.744 428.871 201.209 422.521 193.863C419.123 189.934 413.28 185.614 408 185.112C402.333 184.573 391.989 187.495 388.581 180.671C386.892 177.288 395.114 167.447 394.978 162.015C394.749 152.91 386.706 146.35 384 138C378.091 136.461 376.524 130.778 371.791 127.504C365.504 123.155 358.654 124.197 352.055 121.411C346.607 119.112 345.841 113.755 339 113.104C318.51 111.154 305.16 129.985 286 130z"/>
<path style="fill:#9c6ca8; stroke:none;" d="M163.322 119.029C157.531 122.898 166.129 128.437 170.392 124.972C174.993 121.233 167.21 116.43 163.322 119.029z"/>
<path style="fill:#9b65a1; stroke:none;" d="M232 126L244 127C244.356 131.52 246.33 133.491 250 136L249 130L268 138L264 132L266 129C262.521 128.595 258.322 130.457 255.148 128.664C251.539 126.624 253.007 122.439 250.397 119.894C244.449 114.094 232.595 118.133 232 126z"/>
<path style="fill:#5f3469; stroke:none;" d="M264 125L264 126C269.947 128.519 273.241 127.251 279 125L279 120L264 125z"/>
<path style="fill:#b47eba; stroke:none;" d="M235 125L250 125C247.97 119.227 236.937 119.163 235 125z"/>
<path style="fill:#944c8b; stroke:none;" d="M217 123L224 148L217 148L219 159L224 158L231 156L236.866 173.039L234 184L240 197L235 197L235 203C241.523 201.162 243.313 191.839 245 186C252.861 158.785 222.176 148.266 218 124L222 124L217 123z"/>
<path style="fill:#5d386e; stroke:none;" d="M108 262L109 262C108.188 251.622 114.052 244.703 113.999 234C113.967 227.348 107.568 222.418 107.831 217.018C108.134 210.794 117.708 202.849 119.505 196C122.592 184.23 119.464 171.978 123.951 160C128.127 148.853 139.025 143.843 147.791 137.28C150.679 135.117 152.239 131.353 156.015 130.452C164.224 128.493 174.184 131.06 182 133L184 146C179.796 147.427 178.552 150.788 178 155C170.554 157.471 172.115 171.57 170.701 177.91C170.193 180.188 168.105 182.39 168.461 184.811C168.782 186.986 171.034 187.837 173.001 187.743C177.35 187.536 181.803 179.781 182.672 175.91C185.081 165.178 180.276 151.139 189 142L186 141C185.998 125.851 176.663 129.404 165.001 128.902C161.054 128.732 157.911 123.993 154.265 124.662C150.619 125.331 148.738 130.728 146.062 132.945C138.607 139.121 129.096 143.233 122.514 150.529C119.128 154.282 119.713 160.361 118.556 165C117.383 169.698 114.716 174.29 114.129 179.09C113.112 187.41 114.78 195.722 112.695 203.996C111.291 209.568 103.836 211.998 104.203 217.914C104.567 223.781 111.697 225.441 111.981 232C112.447 242.765 104.958 251.709 108 262z"/>
<path style="fill:#d8aad9; stroke:none;" d="M218 124C219.558 139.542 228.263 144.853 238.715 154.579C249.97 165.054 259.008 174.429 275 176C274.999 167.078 274.556 165.258 266 168C265.59 161.471 266.362 154.2 259 152C257.876 159.116 251.233 161.406 246.148 155.941C243.086 152.649 244.038 148.741 241.821 145.302C239.812 142.187 235.344 142.141 232.804 139.54C227.087 133.686 227.837 124.742 218 124z"/>
<path style="fill:#8f5796; stroke:none;" d="M186 130L187 130C191.933 121.301 197.973 133.077 202 136C201.902 127.263 187.791 119.269 186 130z"/>
<path style="fill:#a975b3; stroke:none;" d="M200 137C199.626 133.561 192.59 121.035 188.137 127.603C184.679 132.702 196.883 136.828 200 137z"/>
<path style="fill:#542454; stroke:none;" d="M213 126C205.268 134.287 195.932 138.321 186 143C185.999 149.647 182.53 153.991 182.055 160.04C181.627 165.492 184.228 172.856 181.526 177.715C179.597 181.183 176.279 189.034 171.152 187.199C166.625 185.579 170.42 180.862 170.856 177.91C171.87 171.066 171.205 158.746 178 155L184 146L182 133L168 130L168 131C176.538 131.101 178.927 135.966 179 144L176 144L168 181L166 181L168 144L164 144C163.914 154.372 158.349 158.843 155.688 168C153.907 174.13 157.798 179.925 157.981 186C158.428 200.909 151.261 213.922 172 216L178 197C185.468 204.118 182.468 213.099 183.313 222C184.318 232.583 189.287 244.569 192.471 254.7C194.281 260.462 204.447 265.758 200 272L200 273L200 274L203 277L193 278L193 279L195 279L195 280C185.804 281.155 170.776 273.383 164.34 266.246C161.685 263.303 161.335 259.363 158 257L158 256C165.51 246.29 159.263 241.262 156.495 231.83C155.575 228.693 156.347 225.281 154.687 222.325C151.697 217.001 147.547 215.893 149 209L144 204C129.146 207.935 143.127 236.19 143 246C140.605 246.027 135.108 245.631 134.832 249.196C134.614 252.012 143.238 253.654 145.295 255.399C153.218 262.118 158.821 278.126 170 280C171.886 286.425 176.945 287.622 183 288.165C189.087 288.711 194.031 286.528 200 286.09C208.012 285.502 215.981 287 224 287L224 286L211 282C215.695 279.766 216.885 276.488 213.137 272.228C209.757 268.386 204.531 267.411 201.549 262.91C195.151 253.249 189.977 236.663 191.174 225C191.857 218.353 194.977 212.812 195 206C186.932 204.713 186.384 191.312 194 189L191 182L196 182L196 179L207 182L207 174L210 177L216 176L217 163L214 163C214.099 151.038 218.106 137.37 213 126z"/>
<path style="fill:#431e47; stroke:none;" d="M98 309L75 316L75 319L0 333L0 335C19.0155 334.948 37.4063 327.913 56 325.21C68.802 323.349 87.7092 321.305 97.5262 311.526C105.302 303.78 104.409 292.475 108.388 283.015C110.318 278.427 117.848 276.672 118.223 271.945C118.677 266.227 111.758 260.183 111 254L133 264L133 258L129 257L130 254C139.107 251.838 141.496 256.918 149 260C146.493 254.272 126.242 246.502 143 246C143.988 235.107 128.855 209.745 144 204L149 209C146.93 216.214 151.684 217.561 154.687 223.184C156.29 226.187 155.547 229.568 156.495 232.715C159.552 242.857 163.851 245.26 158 256L158 257C167.381 267.038 178.872 282.993 195 280L195 279L193 279L193 278L203 277L200 274L200 273L200 272C205.78 266.917 194.668 259.498 192.768 254.7C189.044 245.296 183.97 231.127 183.509 221C183.164 213.409 185.736 201.91 178 197L172 216C151.478 212.469 158.543 200.619 157.981 185C157.789 179.655 154.343 174.356 155.724 169C158.198 159.399 163.97 154.81 164 144L168 144L166 181L168 181L176 144L179 144C178.965 131.839 166.714 126.269 155.043 130.123C151.49 131.296 149.819 135.2 146.896 137.28C139.018 142.887 129.215 147.675 124.799 157.015C118.789 169.727 123.339 183.516 119.197 196C117.031 202.526 107.75 210.85 107.427 217.018C107.166 221.99 113.106 224.972 113.811 230.004C114.429 234.418 114.729 240.754 113.11 244.961C111.702 248.619 108.358 250.821 108.199 255.004C107.985 260.64 114.148 265.841 113.133 270.958C112.378 274.762 107.43 276.718 105.572 280.043C101.867 286.674 98.5182 301.523 98 309z"/>
<path style="fill:#a075ad; stroke:none;" d="M375 130L382 138L375 130z"/>
<path style="fill:#bf82bd; stroke:none;" d="M290 148L290 152C298.82 151.993 301.901 147.897 307 141L290 148z"/>
<path style="fill:#e1b8e0; stroke:none;" d="M365 152L360 157C358.366 162.637 352.727 163.509 349.768 168.29C344.027 177.565 346.674 194.347 336 198L348 236C361.831 235.998 369.996 230.331 382.005 226.069C389.754 223.318 401.964 221.554 408.416 216.822C418.495 209.429 428.36 195.434 411 188.893C405.929 186.982 399.337 188 394 188L394 185C381.664 183.916 380.15 177.766 385 168L391 170C392.585 163.341 392.527 155.18 384.715 152.514C379.837 150.849 376.112 153.073 373 148L365 152z"/>
<path style="fill:#9f74ac; stroke:none;" d="M395 158L393 173L394 173C396.175 168.48 396.983 162.725 395 158z"/>
<path style="fill:#a06ea1; stroke:none;" d="M220 162L220 187L221 187L220 162z"/>
<path style="fill:#79467e; stroke:none;" d="M175 166L172 185L177 185L180 178L177 166L175 166z"/>
<path style="fill:#dbbbe0; stroke:none;" d="M221 193C226.758 196.129 222.412 201.107 221 206C224.054 205.346 223.936 203.993 224 201L231 203C230.999 194.586 227.118 184.566 234 178L232 168C221.342 168.806 222.832 184.636 221 193z"/>
<path style="fill:#b17bb5; stroke:none;" d="M236 169L232.363 184.996L235 197L240 197L234 184C236.143 178.952 238.294 174.466 236 169z"/>
<path style="fill:#a171af; stroke:none;" d="M391 173C385.993 179.962 388.575 183.877 397.001 185.529C407.287 187.546 418.92 185.091 424.678 197.511C426.597 201.649 420.845 207.597 420.21 212C418.379 224.69 424.584 235.466 423 248C434.403 244.195 423.062 224.143 423.079 216C423.103 204.283 428.686 208.825 436.165 209.697C440.87 210.245 443.094 206.266 441.011 202.174C437.022 194.336 427.586 193.506 421 189.437C417.345 187.178 414.252 183.575 410 182.433C402.228 180.344 390.312 185.128 393 173L391 173z"/>
<path style="fill:#a069a3; stroke:none;" d="M207 174L207 182L208 182L210 180L208.397 193.487L197 201C188.622 196.38 198.008 188.409 199 182L198 182L198 185C189.348 189.319 191.834 195.964 192 204L198 203C196.173 217.442 190.871 230.628 197 245L198 245C197.506 233.489 197.652 217.776 202.819 207.054C204.919 202.696 210.095 199.105 213 195L210 174L207 174z"/>
<path style="fill:#7c4982; stroke:none;" d="M196 179L196 182L191 182L195 187L198 185L203 181L196 179z"/>
<path style="fill:#b580b8; stroke:none;" d="M208 180L205 182C205.672 188.954 203.387 191.611 197 194L197 187L196 187C194.735 191.877 189.915 198.649 197 201C204.699 192.442 212.584 194.567 210 180L208 180z"/>
<path style="fill:#d6abd8; stroke:none;" d="M240 203L234 223L243 225L240 215L241 210L246 218L250 217L250 228L252 234L256 233L257 233C256.42 237.989 252.579 246.136 257 250L256 245L259 249L264 249L260 243L264 238L264 227L265 227L267 236L274 237C272.887 233.665 271.476 232.789 268 233L270 227L276 233C274.68 227.553 274.16 223.983 269 221L272 220L266 212L267 208L264 209C263.089 204.596 262.651 199.619 258 198C260.167 191.987 262.526 185.854 255 183L256 188C253.617 186.5 252.482 181.398 249.869 180.921C247.097 180.416 246.497 185.258 245.965 187.001C244.365 192.238 245.404 201.356 240 203z"/>
<path style="fill:#c397ca; stroke:none;" d="M199 181L197 194C204.577 191.933 210.141 181.866 199 181z"/>
<path style="fill:#dfc0e2; stroke:none;" d="M279 182L272 206L276 204L281 206L280 211C284.563 213.736 285.951 226.644 289.664 232.085C291.853 235.292 294.956 239.121 298 235L315 237L314 221L305 224C309.522 211.715 310.189 193.454 294 189L291 192C289.803 186.223 284.7 182.778 279 182z"/>
<path style="fill:#ab6ba8; stroke:none;" d="M261 190L265 188L265 192L266 192L268 184C264.189 184.916 262.172 186.199 261 190z"/>
<path style="fill:#89609c; stroke:none;" d="M418 187C423.495 193.388 433.102 193.799 439.137 200.478C444.154 206.031 440.052 209.668 434 210L434 212C445.739 211.659 446.651 203.905 439.279 196.259C434.499 191.301 424.772 187.455 418 187z"/>
<path style="fill:#8b4784; stroke:none;" d="M264 188L258 197C262.924 196.231 266.028 193.034 264 188z"/>
<path style="fill:#7e4882; stroke:none;" d="M195 206L195 214L197 214L198 203L192 204L193 190C187.39 188.74 186.331 205.325 195 206z"/>
<path style="fill:#bf8ac2; stroke:none;" d="M208 263L208 262C198.028 255.9 203.674 242.345 205.347 234C206.876 226.379 203.823 218.357 206.542 210.17C209.11 202.433 215.95 196.032 220 189C202.183 197.314 195.452 223.894 197.715 241.999C198.561 248.767 200.238 261.762 208 263z"/>
<path style="fill:#f2d8f5; stroke:none;" d="M219 193L216 217C221.488 213.456 229.002 193.764 219 193z"/>
<path style="fill:#bc76b5; stroke:none;" d="M224 201L221 206L221 207L226 207L226 212C229.882 210.822 230.699 208.952 231 205L224 201z"/>
<path style="fill:#813573; stroke:none;" d="M220 207C219.441 210.446 219 212.855 222 215L222 207L220 207z"/>
<path style="fill:#a9589d; stroke:none;" d="M222 207L222 214L226 207L222 207z"/>
<path style="fill:#7a437d; stroke:none;" d="M194 214C188.969 225.692 190.814 238.823 196 250L197 250L194.015 230L194 214z"/>
<path style="fill:#d7b0dc; stroke:none;" d="M413 220L389 228L392 237L386 237L386 230C373.768 230.137 364.924 241.665 354 246L354 247L358 249L371 244L371 245L365 257C357.882 258.046 359.554 263.346 360 269L361 269C362.588 267.34 364 267.214 364 270L368 270L368 273L358 272L360 280L373 279C371.76 281.387 369.546 288.507 375.019 287.252C380.794 285.928 386.608 279.071 391.285 275.737C403.051 267.352 422.548 257.826 422.737 240.09C422.799 234.25 414.033 230.025 412 224L413 220z"/>
<path style="fill:#eecfef; stroke:none;" d="M215 224L220 231L220 224L215 224z"/>
<path style="fill:#a767a3; stroke:none;" d="M212 233L211 244L232 262C230.392 255.572 222.157 246.169 216 244L214 233L212 233z"/>
<path style="fill:#a66fa9; stroke:none;" d="M274 237L274 245L283 251L276 237L274 237z"/>
<path style="fill:#ebc6ef; stroke:none;" d="M296 239C298.85 243.77 301.547 244.936 307 245L307 243L300 239L315 243L315 240L296 239z"/>
<path style="fill:#ddb4de; stroke:none;" d="M268 239C268.374 243.114 269.199 246.029 273 248L272 250C275.017 253.566 274.92 256.588 274 261L281 263L281 264L276 266L286 265C284.689 261.013 283.435 258.735 279 259L271 239L268 239z"/>
<path style="fill:#915593; stroke:none;" d="M196 243L202.225 264.695L232 281L233 280L232 276L245.285 282.545L296 284L296 285L293 285L293 286L310 285L310 282L277.015 283.857L260 280.258L241.148 278.436L233 264L236 272C226.239 270.532 214.545 261.215 211 252L210 252C209.965 255.179 207.62 266.8 202.985 259.833C199.674 254.857 199.714 248.067 196 243z"/>
<path style="fill:#853b7a; stroke:none;" d="M245 250L249 251L249 243C245.424 244.437 245.123 246.286 245 250z"/>
<path style="fill:#6f326b; stroke:none;" d="M210 244C210.037 257.534 222.167 270.783 236 272C233.847 263.461 219.15 245.042 210 244z"/>
<path style="fill:#e5beea; stroke:none;" d="M256 245C256.336 250.675 257.256 254.872 263 257L256 245z"/>
<path style="fill:#a45fa0; stroke:none;" d="M249 247L249 251L245 250C245.425 256.309 250.439 261.179 257 260L249 247z"/>
<path style="fill:#e8c1ed; stroke:none;" d="M307 274C320.095 271.745 334.721 263.884 346 257.03C350.679 254.187 355.56 252.078 358 247L321 266.576L307 274z"/>
<path style="fill:#9365a5; stroke:none;" d="M422 248C418.031 255.455 414.007 260.283 414 269L416 269L422 248z"/>
<path style="fill:#6d487e; stroke:none;" d="M423 248L416 267C420.578 263.714 423.952 253.513 425 248L423 248z"/>
<path style="fill:#3a214b; stroke:none;" d="M425 248L419 264L420 264L424 259C423.496 282.682 408.921 303.104 396.545 322C388.386 334.456 380.438 347.047 368.815 356.316C357.822 365.082 344.252 369.802 333 378L333 379C347.141 378.952 359.502 367.464 370.01 359.011C401.602 333.597 429 289.391 429 248L425 248z"/>
<path style="fill:#311637; stroke:none;" d="M129 257L133 258L133 264L111 254C111.394 260.181 118.322 266.497 117.689 271.945C117.168 276.426 110.243 277.76 108.388 282.043C104.197 291.719 105.119 302.493 97.5262 310.737C87.9465 321.139 67.9703 323.324 55 325.21C36.761 327.862 18.6394 334.846 0 335L0 356C20.3777 356 39.9834 346.706 59 341.272C67.6047 338.813 73.9538 334.999 83 336C77.4769 342.934 69.7254 342.508 62 344.338C57.0408 345.513 52.7963 349.199 48 350.921C42.2296 352.994 36.821 353.278 31 355.782C26.3719 357.773 17.5631 356.656 16 362L0 366L0 380C11.3315 379.473 23.662 372.871 34.0394 368.684C52.7592 361.13 75.8629 350.769 96 349L96 346C109.611 345.416 122.795 341.744 135.83 348.251C152.662 356.652 163.493 373.12 184 374L184 373C176.447 370.56 163.542 367.722 160 360C151.908 357.698 144.867 350.199 136.999 346.705C125.707 341.691 112.078 342 100 342C106.606 336.514 110.051 324.259 118 324L118 320L112 320C111.522 317.665 110.04 314.585 110.731 312.209C113.278 303.466 129.928 295.959 136.044 305.498C137.818 308.265 134.013 316.305 134 320L148 319C152.359 325.21 161.499 323.822 168 323L168 319L188.91 322.727L198.09 328.711L240 333L240 332C229.066 328.768 219.218 332.232 210 324L214 323L197 303L233 308L232 302L246 303L243 300L250 295C251.174 300.478 264.996 290.532 269 288C258.483 281.7 239.616 287.05 228 287.625C218.34 288.103 208.751 285.375 199 286.09C188.574 286.855 176.009 292.322 170 280C158.333 278.739 142.191 239.412 129 257z"/>
<path style="fill:#ac79b2; stroke:none;" d="M282 268L283 271C268.278 271.122 250.704 272.133 237 266C237.491 277.241 243.92 275.211 253 277L253 272L258 274L275.015 281.695L310 282L310 285L304 286L299 289L302 295C294.65 297.425 302.254 306.872 303 312L306 315L307 315L309 287L319 286L320 275C323.194 274.987 325.271 275.403 326 272C317.319 273.282 309.403 278.747 300.996 279.811C298.256 280.158 293.39 280.192 292.345 276.87C291.025 272.676 298.165 270.043 301.015 269.035C311.906 265.187 323.493 260.915 334 256C328.427 254.291 322.975 257.799 317.83 259.546C305.917 263.59 294.67 268 282 268z"/>
<path style="fill:#271636; stroke:none;" d="M423 259L407.472 278.778L407 287L392 301C397.871 299.459 407.963 294.274 411 289L412 289L410 301C417.014 294.525 426.768 268.063 423 259z"/>
<path style="fill:#ba87bf; stroke:none;" d="M324 271L326 275L320 275L319 286L309 287C307.458 299.651 300.845 318.932 320 319C323.99 310.123 334.17 314.503 342 312.394C352.706 309.511 362.172 301.943 372.039 297.102C376.924 294.705 382.189 294.695 387 292L383 291L392 281L374.961 292.442L352.259 298.549L332 310L326 301L322 277C331.057 281.053 335.623 279.079 338 269L348 272C347.88 268.308 347.687 266.223 344 265L345 260L324 271z"/>
<path style="fill:#aa6eaa; stroke:none;" d="M263 265L263 268L272 268L272 266L263 265z"/>
<path style="fill:#e5cded; stroke:none;" d="M410 265L387 288L389 286C399.873 288.266 411.964 275.201 412 265L410 265z"/>
<path style="fill:#5b4170; stroke:none;" d="M413 272L416 269L413 272z"/>
<path style="fill:#79437d; stroke:none;" d="M213 272C215.597 276.811 215.611 278.819 211 282C216.516 288.552 225.581 286.08 233 285.529C249.611 284.297 265.492 286 282 286C280.069 289.433 277.236 295.662 274 290L270 290L270 294L258 295L256 301L259 302L258 306C261.423 310.315 258.048 318.467 253 320C254.456 324.387 257.85 323.985 262 324L260 330C277.385 334.139 294.838 328.366 312 327L312 326L286 328L286 324L280 324L285 316L285 311L282 311L281 306C275.301 307.185 271.588 304.575 270 299L288 292L286 287L296 285L296 284L247.09 282.741L232 276L233 280L232 281C226.343 275.807 220.706 272.996 213 272z"/>
<path style="fill:#9e67a1; stroke:none;" d="M253 272L253 277L238 275C239.692 280.103 247.144 280.445 252 280.745C266.035 281.613 278.876 283 293 283L293 282C286.871 282 278.89 283.316 273.108 280.968C266.855 278.43 266.051 272.281 258 274L253 272z"/>
<path style="fill:#563f69; stroke:none;" d="M408 277L411 274L408 277z"/>
<path style="fill:#3c234d; stroke:none;" d="M397 286L397 287L399 290C392.896 291.712 389.984 298.677 383.999 301.271C371.778 306.568 349.994 303.18 342 316C348.923 313.968 354.967 309.071 362 307.415C369.16 305.729 376.711 307.871 383.91 305.62C391.917 303.117 401.477 293.11 407 287L408 277L397 286z"/>
<path style="fill:#552b5b; stroke:none;" d="M224 287L224 288C238.251 287.706 255.331 282.232 269 288C260.588 291.762 254.372 294.023 253 304L255 310C244.205 307.438 242.005 312.589 249 320L241 321L243 329C255.018 335.415 274.688 332 288 332L288 331L260 330L262 324C257.84 323.951 255.112 323.83 253 320C258.044 319.158 262.728 309.447 258 306L259 302L256 301L258 295L270 294L270 290L274 290C276.348 297.195 280.554 289.607 282 286L224 287z"/>
<path style="fill:#513464; stroke:none;" d="M363 305L363 306L386.946 300.292L399 290L398 285L363 305z"/>
<path style="fill:#9c6ca6; stroke:none;" d="M293 286L294 292L289 296L285 296L285 305L294 316L300 316C301.58 325.467 314.797 322.163 321 320.193C335.912 315.456 348.502 310.801 362.985 304.191C368.379 301.73 375.404 299.969 379 295C364.176 295.983 352.858 310.911 338 312.971C331.273 313.903 322.346 310.497 320 319L303 312C302.591 306.422 295.562 298.611 302 295L299 289C302.137 289.494 303 289.036 304 286L293 286z"/>
<path style="fill:#cbaedc; stroke:none;" d="M389 286L389 288L383 291L394 288L389 286z"/>
<path style="fill:#865992; stroke:none;" d="M286 287L288 292L270 299C270.96 305.059 275.18 307.666 281 306L282 311L285 311L285 316C281.076 317.303 280.264 320.072 280 324L286 324L286 328C301.192 328 313.624 324.337 328 320L328 319C320.014 319.187 303.63 327.957 300 316L294 316C293.364 310.408 289.764 307.582 285 305L285 296L289 296L294 292C293.198 287.194 290.434 287.053 286 287z"/>
<path style="fill:#0b0414; stroke:none;" d="M411 289C405.854 294.917 389.662 305.819 382 307L380 315L376 315L376 310C371.237 309.961 365.834 308.229 361.17 309.3C349.544 311.97 336.27 319.737 325 324.265C319.856 326.332 313.484 326.24 308.71 329.133C303.584 332.24 306.946 335.652 311 337L311 339L307 344C309.924 349.336 302.22 351.723 298 352L298 345L294 351L288 344L280 344L280 339L245 333.17L199.039 328.711L189.826 322.727L168 319L168 323C160.694 323.577 153.806 324.49 148 319L134 320C134.044 316.038 138.469 308.654 136.716 305.498C128.954 291.527 107.945 307.003 112 320L118 320L118 324C110.06 324.094 105.39 335.736 100 342C111.758 342 125.013 341.842 136 346.705C143.864 350.186 151.667 358.681 160 360C161.57 365.577 167.007 366.985 172 368.792C183.326 372.891 196.06 383.197 208 384C209.953 389.467 216.798 390.838 222 391.75C235.896 394.187 249.911 395 264 395C312.282 395 362.875 370.287 391.05 331.424C397.945 321.912 416.372 301.923 411 289z"/>
<path style="fill:#3d2149; stroke:none;" d="M243 300L246 303L232 302L233 308L217 306C216.526 312.206 213.532 312.372 208 312L208 313L214 323L210 324C215.9 331.413 225.298 330.417 234 331.053C249.469 332.184 264.31 334.983 280 333L280 332C268.109 332 254.168 333.732 243 329L241 321L249 320C244.131 312.489 243.754 307.951 255 310C255.834 306.863 256.589 304.769 253 304L254 298L250 295C246.29 295.596 244.194 296.313 243 300z"/>
<path style="fill:#69427b; stroke:none;" d="M360 305L360 306C368.188 304.318 376.596 301.675 382 295L360 305z"/>
<path style="fill:#220d2c; stroke:none;" d="M336 316C332.258 322.123 320.607 324.031 314 325.731C291.14 331.616 270.358 333 247 333L247 334L280 339L280 344L288 344L294 351L298 345L298 352C301.6 351.893 312.283 348.88 307 344L311 339L311 337C299.425 331.544 314.268 327.327 320 326.079C334.612 322.9 347.87 312.186 362.09 309.314C366.392 308.445 371.573 309.988 376 310L376 315L380 315L382 307C386.746 306.642 389.227 304.809 392 301L378 306.572L360 307.688L336 316z"/>
<path style="fill:#683c6f; stroke:none;" d="M197 303C197.747 312.665 208.441 312.227 215 309L215 313C222.528 303.008 202.445 303.755 197 303z"/>
<path style="fill:#906198; stroke:none;" d="M212 309L212 313L215 313L215 309L212 309z"/>
<path style="fill:#5f3e6d; stroke:none;" d="M312 325L312 326L336 319C329.493 316.466 318.326 322.673 312 325z"/>
<path style="fill:#160621; stroke:none;" d="M0 356L0 366L16 362C19.0027 357.092 25.0485 358.353 30 356.556C40.5955 352.711 52.1107 347.066 63 344.418C70.053 342.703 78.8668 343.282 83 336C73.5847 334.099 67.0213 338.694 58 341.272C39.3926 346.589 19.9354 355.998 0 356z"/>
<path style="fill:#4e3161; stroke:none;" d="M96 346L96 347C105.275 346.923 115.839 343.945 124.91 346.989C155.11 357.122 180.116 389.278 214 390L214 389L208 384C200.457 383.012 193.676 377.362 186.572 374.753C176.584 371.085 167.517 370.158 158.17 364.029C150.157 358.774 143.081 350.318 133.961 347.054C121.089 342.447 109.098 344.966 96 346z"/>
<path style="fill:#59386f; stroke:none;" d="M0 380L0 427L136 427L136 424L132 424C133.56 420.899 133.785 415.298 129 418L123 416L123 410L131 407L119 405.397L104 400L104 387L96 387L96 384L92 384C91.9574 371.932 82.7849 368 72 368L76 362L72 362L80 355C72.1167 351.699 63.1167 358.092 56.0147 361.028C39.3621 367.911 17.8682 378.386 0 380z"/>
<path style="fill:#3c234d; stroke:none;" d="M228 393L228 394C248.358 396.586 272.589 400.597 293 396.486C306.46 393.775 317.561 386.97 330 382C321.131 378.573 304.998 389.571 296 391.699C272.864 397.171 251.265 393.003 228 393z"/>
</svg>
