<?xml version="1.0" standalone="no"?>
<!DOCTYPE svg PUBLIC "-//W3C//DTD SVG 20010904//EN"
 "http://www.w3.org/TR/2001/REC-SVG-20010904/DTD/svg10.dtd">
<svg version="1.0" xmlns="http://www.w3.org/2000/svg"
 width="640.000000pt" height="427.000000pt" viewBox="0 0 640.000000 427.000000"
 preserveAspectRatio="xMidYMid meet">

<g transform="translate(0.000000,427.000000) scale(0.100000,-0.100000)"
fill="#000000" stroke="none">
<path d="M0 2135 l0 -2135 3200 0 3200 0 0 2135 0 2135 -3200 0 -3200 0 0
-2135z m3435 999 c16 -8 42 -30 57 -49 24 -29 36 -34 90 -40 69 -8 121 -26
152 -53 37 -33 169 -217 192 -268 40 -91 36 -141 -16 -198 -37 -40 -39 -44
-22 -58 40 -36 80 -48 154 -45 72 2 74 1 158 -51 47 -29 99 -66 116 -83 17
-16 33 -27 36 -24 3 3 11 -1 17 -9 10 -12 9 -21 -3 -43 -15 -27 -16 -27 -22
-6 -11 40 -94 38 -113 -3 -19 -42 -14 -192 9 -252 11 -29 20 -64 20 -78 0 -28
-27 -85 -76 -159 -22 -33 -36 -66 -38 -94 -3 -35 -12 -52 -52 -93 -72 -75
-198 -165 -257 -185 -29 -10 -124 -54 -212 -99 -216 -109 -288 -137 -339 -132
-31 4 -48 -1 -71 -18 -17 -13 -49 -26 -72 -30 -35 -5 -42 -3 -47 12 -3 11 -20
28 -36 39 -17 11 -33 31 -36 45 -3 14 -11 36 -18 50 -7 14 -16 40 -20 58 -5
28 -3 35 14 39 20 5 29 43 10 43 -5 0 -10 5 -10 10 0 6 7 10 16 10 9 0 18 9
21 20 3 12 14 20 27 20 22 0 46 17 46 31 0 4 -10 11 -22 15 -21 6 -21 7 -2 21
18 13 17 14 -11 7 -16 -4 -48 -13 -70 -21 -21 -7 -89 -16 -150 -19 -109 -6
-111 -6 -169 25 -32 17 -69 31 -81 31 -15 0 -26 8 -30 20 -3 11 -12 20 -20 20
-7 0 -15 -9 -18 -20 -5 -21 -41 -28 -52 -10 -4 7 -13 6 -27 -1 -34 -19 -65 3
-73 51 -5 28 -19 55 -46 83 -21 23 -51 61 -66 85 -15 23 -33 42 -40 42 -8 0
-28 15 -46 33 -24 23 -32 40 -30 61 1 16 -4 38 -12 49 -13 18 -15 19 -21 4 -3
-10 -4 -31 -2 -47 3 -18 -1 -35 -9 -41 -9 -8 -13 -36 -13 -87 0 -56 -4 -80
-17 -94 -9 -10 -20 -18 -24 -18 -28 0 -89 214 -89 311 0 30 5 72 10 94 6 22
13 65 16 95 9 73 35 123 81 151 53 33 78 56 109 100 25 37 26 39 22 183 -4
123 -2 144 10 134 10 -9 15 -9 22 1 5 9 17 11 35 7 52 -13 123 -216 81 -232
-18 -7 -22 -39 -5 -50 12 -7 8 -134 -6 -166 -10 -26 27 -24 50 2 19 22 60 163
70 242 9 75 -36 158 -141 260 -89 87 -128 150 -140 226 -6 40 -5 42 18 42 29
0 45 -16 73 -74 20 -40 36 -52 103 -77 17 -6 47 -27 66 -46 64 -66 104 -10 64
90 -6 15 -8 30 -5 33 9 9 111 -30 125 -48 7 -10 22 -18 33 -18 21 0 25 21 9
50 -8 15 -5 19 17 23 34 6 50 0 56 -22 3 -13 17 -20 43 -23 50 -7 70 4 77 42
6 27 9 29 32 20 41 -15 51 -12 86 25 25 26 44 36 78 41 68 9 79 13 86 32 3 10
29 30 58 44 42 22 67 27 127 27 49 1 85 -4 105 -15z m-1754 -64 c26 -15 24
-38 -5 -46 -31 -7 -46 1 -46 26 0 15 9 24 28 29 2 1 12 -4 23 -9z m806 -15
c12 -12 12 -19 3 -30 -8 -10 -28 -13 -73 -9 -63 4 -89 16 -71 33 22 22 120 26
141 6z m372 -14 c-15 -5 -22 6 -14 19 6 9 10 9 16 -1 5 -8 4 -15 -2 -18z
m-910 -72 c31 -31 41 -69 19 -69 -20 0 -36 13 -63 50 -19 25 -22 36 -12 42 19
12 23 10 56 -23z m157 -524 c7 -59 -24 -116 -79 -143 -26 -13 -49 -27 -52 -33
-4 -5 -12 -9 -20 -9 -18 0 -32 67 -16 83 6 6 11 19 11 28 0 9 7 23 16 30 9 7
20 23 25 36 10 26 44 31 53 8 9 -24 26 -17 38 16 12 36 18 33 24 -16z m816
-1180 c4 -17 3 -32 -2 -35 -6 -4 1 -17 15 -30 14 -13 25 -31 24 -39 0 -11 -2
-12 -6 -3 -3 7 -16 17 -29 22 -13 5 -24 16 -24 25 0 8 -7 15 -15 15 -11 0 -14
9 -13 33 5 54 36 62 50 12z m88 -105 c0 -5 -4 -10 -10 -10 -5 0 -10 5 -10 10
0 6 5 10 10 10 6 0 10 -4 10 -10z"/>
<path d="M2653 2414 c-17 -7 -83 -101 -76 -108 4 -3 17 -6 29 -6 18 0 30 12
49 50 33 65 33 78 -2 64z"/>
<path d="M2250 2231 c0 -6 5 -13 10 -16 6 -3 10 1 10 9 0 9 -4 16 -10 16 -5 0
-10 -4 -10 -9z"/>
<path d="M2199 2176 c-12 -25 -7 -56 9 -56 16 0 50 35 54 55 2 15 -3 21 -24
23 -22 3 -30 -2 -39 -22z"/>
<path d="M2753 1865 c0 -8 6 -15 14 -15 8 0 13 -12 13 -29 0 -30 22 -61 42
-61 6 0 4 8 -6 19 -9 10 -14 25 -11 32 3 8 -7 27 -23 42 -20 20 -29 23 -29 12z"/>
<path d="M2462 1828 c-16 -16 -15 -55 1 -61 9 -3 9 -7 0 -17 -15 -17 1 -50 24
-50 9 0 27 -10 40 -22 22 -20 25 -21 40 -5 15 15 14 17 -9 28 -29 12 -41 33
-59 97 -13 45 -18 49 -37 30z"/>
<path d="M3215 1680 c-22 -11 -31 -18 -20 -16 11 3 35 7 52 11 18 4 35 11 38
16 10 15 -28 9 -70 -11z"/>
<path d="M3126 1655 c-15 -8 -39 -15 -53 -15 -13 0 -33 -9 -45 -20 -19 -17
-20 -20 -4 -20 22 0 146 53 146 63 0 11 -12 9 -44 -8z"/>
<path d="M2659 1599 c16 -6 28 -6 35 1 7 7 -1 10 -24 9 -33 0 -34 -1 -11 -10z"/>
<path d="M2918 1573 c6 -2 18 -2 25 0 6 3 1 5 -13 5 -14 0 -19 -2 -12 -5z"/>
<path d="M3230 1530 c0 -5 7 -10 15 -10 8 0 15 5 15 10 0 6 -7 10 -15 10 -8 0
-15 -4 -15 -10z"/>
</g>
</svg>
